<svg version="1.2" xmlns="http://www.w3.org/2000/svg" viewBox="0 0 256 256" width="800" height="800">
	<title>logo-svg</title>
	<style>
		.s0 { fill: #e0653d } 
		.s1 { fill: #eed7c7 } 
	</style>
	<g id="svgg">
		<path id="path0" fill-rule="evenodd" class="s0" d="m133.7 80.9c21.8 2 34.2 15 34.2 35.7 0 20.3-11.9 36-29.5 38.7-4.2 0.6-4.3 0.3 1.1 6.1 2.4 2.5 5.2 5.6 6.3 6.8 3 3.4 5.8 6.4 11.6 12.5 2.9 3.1 5.8 6.3 6.4 7 1.3 1.6 7.1 8 10.7 12 1.5 1.5 3.8 3.9 5.1 5.4 1.4 1.6 4.2 4.5 6.1 6.5 2 2.1 4.8 5 6.3 6.6 21.6 22.8 38.2 32.9 54.9 33.1 4.3 0.1 4.9 0.2 5.1 0.7 0 0.4 0 0.7-0.1 0.7-0.1 0-1.5 0.3-3.2 0.8-24.2 5.8-47.2-4.8-72.2-33.1-5.2-5.9-7.5-8.4-9.1-10.2-0.9-1-2.5-2.8-3.5-3.9-0.9-1.1-1.8-2-1.9-2.1-0.1-0.1-2-2.2-4.1-4.5-2.1-2.4-4.9-5.4-6.2-6.7-1.3-1.3-3.5-3.7-5-5.5-2.3-2.8-11.6-13.2-16.6-18.6-1.1-1.2-3.5-3.9-5.4-6-5.2-5.8-9.2-9.5-11.5-10.7-4-1.9-3.2-2.3 5.6-2.6 4.2-0.1 8.4-0.4 9.5-0.6 4.4-1 5.5-1.3 7.6-2.1 5.1-1.7 11.3-6.7 13.6-10.8 7.4-13.3 4.7-34.8-5.6-44.1-5.2-4.7-7.9-5.2-25.7-5.2l-14.2-0.1 0.3 121.6 0.9 1.8c2.3 4.6 5.9 7 11 7.4 2.3 0.1 2.9 0.3 2.9 0.8 0 0.5-2.6 0.6-21.4 0.6-20.3 0.1-21.5 0.1-21.3-0.5 0.1-0.6 0.6-0.8 3-0.9 4.7-0.3 8.6-2.9 10.9-7.3l1.1-1.9v-116.3l-1.1-2.2c-2.2-4.4-6.2-7.1-11.8-7.6q-3.1-0.3-2-1.5c0.5-0.4 52.5-0.3 57.2 0.2zm81.5 33.3c-3.5 17.5-27.4 18.2-31.7 1-1.9-7.5 2.8-16.4 9.8-18.6 0.8-0.2 1.9-0.6 2.6-0.8 9.6-3.3 21.5 8.1 19.3 18.4z"/>
		<path id="path2" fill-rule="evenodd" class="s1" d="m116.1 6.3c2.8 6.7 2.8 6.9 1.5 6.9-0.8 0-1.2-0.4-1.8-1.6l-0.8-1.6-3 0.1-3 0.1-0.7 1.5c-0.7 1.5-2.2 2.2-1.7 0.8 0.1-0.4 1.3-3.3 2.5-6.5 3.1-8.1 3.5-8 7 0.3zm5.7-6.1l2.8 0.2c10.4 1.1 10.7 13.3 0.3 13.1q-4.6-0.1-4.5-1.1c0-0.4 0.3-2.6 0.5-5.1 0.2-2.5 0.5-5.1 0.7-5.8zm-18.2 2.4c0 0.5-0.2 0.5-1.6-0.2-3.4-1.8-7 0.5-7.3 4.4-0.3 5.5 4.5 8.5 8.6 5.2 0.9-0.7 1.7-1.1 1.8-1 0.4 0.4-1.6 2.3-3.3 3-1.9 0.9-2.1 1.4-0.7 2 2.1 0.9 1 3.4-1.5 3.4-1.4 0-1.3-0.7 0-0.8 1.5-0.2 1.8-1.7 0.4-2.3-0.6-0.2-1.1-0.6-1.1-0.9 0-0.4-0.6-0.8-1.5-1-6.4-1.8-7.1-10.2-1-13 2.5-1.1 7.2-0.3 7.2 1.2zm19.6 4.2c-0.6 5.4-0.5 5.6 1.8 5.6 4.9 0 7-8.5 2.4-10.1-3.4-1.3-3.6-1.1-4.2 4.5zm22.6-2.5c0.9 0.9-0.8 1-3.6 0.3-3.4-0.9-3.6-0.8-4.1 1.3-0.5 2.1-0.2 2.4 2.2 2.9 1.3 0.3 2.1 0.7 2 1-0.2 0.5-0.5 0.5-3.3 0-1.6-0.2-1.6-0.2-2.1 1.3-0.6 2.3-0.5 3.2 0.5 3.4 0.5 0.2 2 0.5 3.4 0.8 2.7 0.6 3.1 0.8 2.5 1.4-0.3 0.3-8.7-1.4-9.2-1.9-0.3-0.3 2.1-11.4 2.6-12.2 0.3-0.5 8.5 1.1 9.1 1.7zm-35.1 0.9c-1.3 3.4-1.2 3.7 1.2 3.7 2.5 0 2.7-0.5 1.3-3.5-1.3-2.9-1.5-3-2.5-0.2zm-22.5 4.5c4.6 5.9 4.4 5.7 3.1 6-0.9 0.2-1.3 0-2.1-1l-1.1-1.3-2.7 0.7c-2.9 0.7-3.7 1.4-3.7 3 0 1.2-0.6 1.9-1.1 1.3-0.5-0.6 1.3-13.4 1.9-13.9 1.1-0.7 1.7-0.1 5.7 5.2zm-13.8-2.8c1.5 0 0.3 1-2.4 2.1-3.1 1.3-3.2 1.6-2.2 4.2 0.7 1.7 1.6 2 3.3 1 1.2-0.7 2.9-0.8 2.7-0.2-0.1 0.3-1.1 0.8-2.2 1.2-2.3 0.9-2.4 1.2-1.3 4.1l0.8 2.1-1 0.5c-1.2 0.5-0.8 1.1-3.4-5.5-2.7-6.7-2.8-6.2 1.5-8 1.9-0.8 3.8-1.4 4.2-1.5zm8.1 4.4c0 2.2 0.1 2.3 2.5 1.6 2.2-0.6 2.2-0.8 0.4-3.3-2.1-2.9-2.9-2.4-2.9 1.7zm30.5 11.1c36 0.4 61.9 14.2 61.9 32.9 0 6.4-6.7 12.5-7.8 7.2-3.3-15.4-20.5-30.3-40.9-35.4-39.2-9.8-76.6 16.8-85.6 61-9.5 46.7 10.6 91.7 46.9 104.8l3.6 1.3v1.9c0 1 0 1.8-0.1 1.8-2.4-0.2-12.5-3.6-17.5-6-21.8-10.1-39.2-31.2-45.1-54.3-4.5-18-4.5-35.1 0-53.2 8.1-31.8 36.4-57 69-61.4 1.8-0.2 3.8-0.5 4.5-0.6 0.6-0.1 5.6-0.1 11.1 0zm-69.6 15.9c0 7.3-8.8 10.2-12.8 4.3-2.5-3.6-0.6-8.9 3.6-10.5 4.4-1.6 9.2 1.6 9.2 6.2zm-12.1-2c-1.4 3.9 4 8.9 7.9 7.3 4.1-1.8 3-7.8-1.8-9.7-2.6-0.9-5.3 0.1-6.1 2.4zm-4.8 7.2c0.3 0.3-0.2 0.8-1.3 1.4-5 2.7-2.9 9.6 3 10 3.4 0.3 5.5-1.7 5.5-5.2 0-2.2 0.8-2 1 0.2 0.3 4.1-4.3 8.1-8.3 7.3-6.5-1.3-7.7-10.4-1.7-13.1 0.9-0.4 1.7-0.7 1.8-0.6zm-9.9 15.6c-1.7 3.7-1.7 3.2 0.2 4.2 2 1 2.4 0.8 3.4-1.4 0.5-0.9 1-1.8 1.2-1.8 0.7 0 0.8 0.6 0 2-1.2 2.4-1 3.1 1 4 2.2 0.9 2.4 0.8 4.1-2.8 1.1-2.3 2.4-3.6 2.4-2.5 0 0.6-4.1 8.7-4.4 8.7-0.6 0-11.3-5.5-11.3-5.8 0-0.3 2.4-5.3 3.5-7.4 1.3-2.4 1.2 0-0.1 2.8zm5.4 15.4c0.3 1.6-1.2 7.1-2 7.4-0.9 0.4-11.6-3.6-11.8-4.3-0.4-2.2 3.1-7.6 5.5-8.4 3.7-1.1 7.6 1.3 8.3 5.3zm-11.8 0.6l-0.2 1.4 4.5 1.5c2.4 0.8 4.6 1.5 4.8 1.6 0.6 0.2 1.4-1.9 1.4-3.4 0-1.6-1.5-3.5-3.3-4.3-3.3-1.6-6.6-0.1-7.2 3.2zm5.2 32.4c0.5 0 0.6 0.8 0.6 4.9v4.9l-6.1 0.1c-3.4 0-6.3 0-6.5-0.1-0.6-0.4-0.6-9.2 0-9.2 0.5 0 0.7 0.7 0.7 3.3 0.2 3.6 0.4 3.9 2.3 3.9 1.7 0 2.1-0.4 2.2-2.7 0.2-2.9 1.1-3.2 1.1-0.3 0 2.6 0.3 2.9 3.1 2.7l2-0.1v-3.7c0-3 0.1-3.7 0.6-3.7zm0.5 16.1c2.4 0.8 1.7 1.9-2.4 4.1-2 1.1-4.6 2.6-5.8 3.3-2.7 1.4-3.1 1.5-3.1 0.1 0-1 0.4-1.3 4.7-3.6 6-3.2 6.1-3-1.6-4.8-3.8-0.8-4.5-1.2-4.1-1.8 0.2-0.3 8.8 1.6 12.3 2.7zm2.6 9.8c0.3 1.2 0.2 1.3-5.1 2.4-7.6 1.7-7.5 1.6-7.7 0.7-0.3-1.2 0.3-1.5 4.8-2.4 2.3-0.5 4.6-1 5.3-1.2 1.9-0.5 2.4-0.4 2.7 0.5zm-10.5 8.4c0.8 2.3 0.8 2.3 6.6 0.5 4.4-1.3 5.4-1.5 5.7-1.1 0.8 1.3 0.1 1.7-5.1 3.3-5.8 1.7-5.9 1.7-4.9 5 0.2 0.8 0.1 1.1-0.4 1.1-0.3 0-0.6-0.1-0.6-0.2 0-0.1-0.6-2.2-1.4-4.7-0.7-2.5-1.3-4.8-1.3-5.1 0-1.2 0.9-0.4 1.4 1.2zm14 5.6l0.5 1.1c0.5 0.9 0.5 1.1-0.4 2-2 2.1-0.1 6.8 2.8 7.1 2.9 0.3 2.4 1-1 1.3-13 1.1-13.7 0.4-6.9-6.5zm-4.6 7.8c-2.7 2.8-2.5 3.1 2 2.5 2.3-0.2 2.5-0.5 1.3-2.9-1-1.9-1-1.9-3.3 0.4zm12.5 8.4c1.5 2.7 2.1 4.1 1.9 4.5-0.5 0.7-10.4 6.3-10.8 6.1-0.7-0.4-4.7-7.6-4.4-8 0.4-0.6 1.2 0.2 2.7 3 1.6 2.9 1.4 2.7 3.3 1.7 2.1-1.1 2.2-1.2 0.8-3.5-0.6-1.1-1-2-0.7-2.2 0.5-0.3 1 0.1 1.9 1.8 1 1.8 1.4 1.9 3.5 0.8 2.1-1.1 2.1-1.1 0.2-4.5-1.1-1.8-1.7-3.3-1.6-3.6 0.4-0.9 0.6-0.6 3.2 3.9zm146-3.3c0.1 0 0.2 4.2 0.2 9.2v9.2l-2 2.2c-2.2 2.3-6 5.3-8.3 6.5l-1.5 0.8-2.4-2.7c-6-6.4-5.7-5.3-2.2-8.2 3.8-3 10.5-9.8 13.6-13.8 1.4-1.7 2.6-3.2 2.6-3.2zm-141.9 10.3c0.4 0.7 0.3 1.4-0.4 3.7-1.4 4.4 0 6.1 3.2 3.6 1.5-1.2 2.7-1.1 2.7 0.3 0 0.5-9.6 8-10.2 8-0.2 0-1.1-1.2-2.1-2.7-3.5-5-2.7-8.6 1.8-8.4l2.2 0.1 0.7-2.1c0.3-1.1 0.8-2.3 1-2.7 0.4-0.9 0.6-0.8 1.1 0.2zm-6.1 11.8l0.9 1.2 2.2-1.5c2.5-1.6 2.6-1.9 1.1-3.6-3.1-3.6-7.2 0.3-4.2 3.9zm17.6 1.9c4.7 6.2-3.5 14.3-9.7 9.6-2.1-1.6-3.7-6.2-2.2-6.2 0.2 0 0.4 0.5 0.4 1 0 5.1 7 6.3 10.1 1.8 2.2-3.3-0.1-8.2-3.8-8.2-0.4 0-0.9-0.2-1-0.4-1.2-2 4.6 0.3 6.2 2.4zm100.5 2.8c0.6 0.1 5.8 6.2 5.6 6.5-1.3 2.1-24 5.8-37.9 6.2l-9.3 0.2v-3.2l3.5 0.2c9.8 0.6 21.9-2.2 32.7-7.5 2.8-1.3 5.3-2.4 5.4-2.4z"/>
	</g>
</svg>